<svg width="638" height="128" viewBox="0 0 638 128" fill="none" xmlns="http://www.w3.org/2000/svg">
<rect width="42" height="128" fill="#6CE4BF"/>
<rect y="85" width="42" height="107" transform="rotate(-90 0 85)" fill="#5DA7EB"/>
<rect x="85" width="42" height="128" fill="#FFE768"/>
<g clip-path="url(#clip0_5776_235)">
<path d="M250.817 24.3799C247.987 22.1248 244.356 21.6983 241.101 23.239C235.909 25.702 229.721 33.9387 229.721 59.214C229.721 62.3114 229.877 65.2436 230.163 68.0105H193.136V21.9009H185.066V70.3242L168 86.7337L173.622 92.4701L185.071 81.4611V106.566H193.142V76.0073H231.411C235.763 96.6231 247.078 105.905 247.67 106.374L252.749 100.163C252.243 99.7472 242.257 91.3665 238.889 72.2541C240.891 68.9914 245.044 61.9702 248.59 54.32C251.242 48.5942 259.318 31.1665 250.817 24.3799ZM241.283 50.9186C240.164 53.339 238.965 55.7167 237.797 57.9185C237.975 38.7368 242.112 31.625 244.581 30.4521C244.754 30.3722 244.91 30.3189 245.076 30.3189C245.281 30.3189 245.491 30.3988 245.749 30.6067C246.992 31.5983 247.659 37.1215 241.278 50.9186H241.283Z" fill="white"/>
<path d="M631.926 84.8411L620.461 97.8226C610.475 97.2682 609.942 91.7344 609.942 77.2122L609.711 66.4591L617.733 46.2912L617.754 46.2272C621.268 36.9509 621.569 30.3242 618.712 25.3768C616.775 22.0235 612.385 20.2642 608.5 21.2878C601.678 23.0844 600.941 31.2145 600.941 34.6212L601.603 65.0144L590.418 93.1258C589.708 94.9225 588.492 96.4099 587.001 97.3162C585.129 98.4517 583.413 98.4091 581.433 97.1829C579.55 96.0154 578.307 94.2721 578.307 94.2721L578.167 94.0695L574.396 89.8258C577.172 84.8625 578.683 79.2487 578.673 73.4643C578.64 57.5507 567.799 45.081 553.988 45.081C538.784 45.081 531.569 56.6497 529.88 62.7699L537.665 64.8811C537.697 64.7638 541.076 53.0778 553.988 53.0778C563.28 53.0778 570.576 62.0396 570.602 73.4803C570.602 75.1543 570.382 78.9821 568.606 83.3058L552.762 65.4675L550.443 65.9633C539.311 68.3517 532.043 74.5839 530.499 83.0605C530.456 83.2844 530.434 83.5083 530.402 83.7323H522.87L510.199 97.5507C503.243 97.1776 500.854 94.4 500.041 87.8746C501.01 85.5395 502.021 83.0605 503.049 80.4696L507.412 69.4979C511.862 58.4836 510.404 52.0382 508.402 48.5676C506.465 45.2143 502.07 43.455 498.191 44.4786C495.92 45.0757 490.632 47.576 490.632 57.8119L491.562 77.0363C491.562 80.4749 491.562 83.7003 491.799 86.6857C491.455 87.5014 491.121 88.2904 490.788 89.0635C489.141 92.8913 486.236 95.8608 482.604 97.4121C479.156 98.8889 475.922 98.8356 472.715 97.2415C468.148 94.9704 465.199 90.0977 465.199 84.8305V50.4229H457.129V84.8358C457.129 85.6355 457.188 86.4245 457.269 87.2082H449.683L438.099 99.9445C428.485 99.2887 427.538 92.854 427.538 77.2122V45.6568C445.513 41.573 453.395 32.7712 453.815 32.2914L447.719 27.0508C447.692 27.0828 444.825 30.2442 438.584 33.3683C435.85 34.7331 432.176 36.2205 427.538 37.4147V22.1674H419.468V38.9767C416.089 39.4352 412.371 39.7125 408.272 39.7125C401.762 39.7125 397.318 39.3713 392.938 38.5343L391.663 38.2677C393.331 35.9486 393.934 33.1871 393.643 30.6441C393.024 25.057 388.494 21.0052 382.888 21.0052C377.282 21.0052 372.784 25.6274 372.321 31.3105C372.047 34.7011 373.344 37.9585 375.985 40.4695C378.702 43.0605 382.743 44.8091 387.983 45.6674L391.33 46.3658L391.394 46.3765C396.322 47.3201 401.218 47.7093 408.293 47.7093C412.323 47.7093 416.046 47.4694 419.489 47.0535V77.2122C419.489 80.6668 419.489 84.0255 419.726 87.2082H409.891L398.308 99.9445C388.693 99.2887 387.746 92.854 387.746 77.2122V50.1936L357.467 49.8897L356.875 49.4153L325.578 83.9188C324.906 81.1946 324.513 77.9319 324.518 74.0135V22.1674H316.448V74.0081C316.437 80.5175 317.417 86.1473 319.343 90.7908L316.066 94.4L315.953 94.5279C313.898 97.0016 311.923 98.2331 310.089 98.1478C307.415 98.0465 304.908 95.3063 304.181 94.2827L304.041 94.0801L300.27 89.8365C303.046 84.8731 304.558 79.2594 304.547 73.475C304.515 57.5613 293.674 45.0916 279.863 45.0916C264.659 45.0916 257.449 56.6604 255.754 62.7806L263.534 64.9131C263.674 64.4279 267.101 53.0885 279.863 53.0885C289.155 53.0885 296.45 62.0502 296.477 73.491C296.477 75.165 296.256 78.9928 294.481 83.3164L278.636 65.4782L276.317 65.974C265.186 68.3624 257.917 74.5946 256.373 83.0712C254.985 90.6948 258.627 98.7183 265.433 103.037C272.589 107.584 281.665 106.976 289.703 101.416C291.807 99.9604 293.717 98.3024 295.417 96.4792L297.677 99.0222C298.656 100.36 303.057 105.841 309.701 106.134C314.194 106.353 318.369 104.161 322.124 99.6832L323.706 97.9346C325.664 100.174 328.005 101.976 330.716 103.314C335.064 105.462 339.319 106.395 343.344 106.395C353.625 106.395 362.39 100.307 367.253 92.8326C371.251 86.6911 372.951 79.4513 372.047 72.4461C371.369 67.2162 369.282 62.3168 365.924 57.9772L379.671 58.1158V77.2175C379.671 84.6652 379.671 91.6971 382.016 97.3748C384.927 104.428 390.996 108.005 400.051 108.005H401.848L413.48 95.2103H421.066C421.286 95.9514 421.539 96.6711 421.83 97.3748C424.74 104.428 430.809 108.005 439.864 108.005H441.661L453.293 95.2103H459.749C461.837 99.1288 465.076 102.397 469.116 104.407C471.903 105.793 474.819 106.486 477.767 106.486C480.447 106.486 483.153 105.915 485.827 104.769C489.378 103.25 492.461 100.867 494.866 97.8493C498.018 103.063 503.635 105.606 511.959 105.606H513.745L526.453 91.7451H531.021C532.366 96.2766 535.362 100.371 539.57 103.042C546.725 107.589 555.802 106.982 563.84 101.421C565.943 99.9658 567.853 98.3078 569.553 96.4845L571.818 99.0328C572.373 99.7845 574.159 102.029 576.87 103.788C579.297 105.361 581.842 106.15 584.376 106.15C586.705 106.15 589.024 105.484 591.23 104.145C594.205 102.338 596.589 99.4646 597.934 96.0633L602.028 85.7688C602.259 89.7565 602.841 93.3391 604.282 96.4578C607.215 102.791 613.09 105.873 622.252 105.873H624.081L637.995 90.1137L631.92 84.8465L631.926 84.8411ZM382.259 35.2769C380.94 34.3173 380.262 33.1817 380.365 31.9555C380.494 30.3668 381.86 29.0021 382.888 29.0021C384.83 29.0021 385.53 30.5908 385.637 31.5344C385.842 33.3203 384.61 34.6745 382.259 35.2769ZM285.092 94.8532C277.77 99.9125 272.363 97.9293 269.791 96.2979C265.772 93.7443 263.518 88.8875 264.32 84.484C265.17 79.7978 269.21 76.2472 275.774 74.3493L290.064 90.4442C288.708 91.9903 287.067 93.483 285.087 94.8532H285.092ZM360.474 88.493C355.433 96.2446 345.394 101.624 334.321 96.154C332.621 95.317 330.802 93.9842 329.194 91.8837L357.558 60.6108C364.106 67.5734 367.194 78.1505 360.469 88.493H360.474ZM499.234 68.2931L498.718 57.7213C498.734 54.0907 499.659 52.4221 500.246 52.2195C500.649 52.0809 501.279 52.3794 501.413 52.5447C502.15 53.8188 503.485 57.7373 499.928 66.5498L499.234 68.2984V68.2931ZM559.218 94.8532C553.789 98.6063 548.361 99.1181 543.917 96.2979C539.898 93.7443 537.644 88.8875 538.445 84.484C539.295 79.7978 543.336 76.2472 549.9 74.3493L564.189 90.4442C562.834 91.9903 561.193 93.483 559.213 94.8532H559.218ZM609.012 34.5785C609.017 30.916 609.948 29.226 610.54 29.0234C610.943 28.8848 611.573 29.1833 611.707 29.3486C613.235 31.9929 612.729 36.711 610.211 43.3857L609.259 45.7794L609.017 34.5785H609.012Z" fill="white"/>
</g>
<defs>
<clipPath id="clip0_5776_235">
<rect width="475" height="87" fill="white" transform="translate(163 21)"/>
</clipPath>
</defs>
</svg>
