<svg width="83" height="81" viewBox="0 0 83 81" fill="none" xmlns="http://www.w3.org/2000/svg">
<g clip-path="url(#clip0_201_2532)">
<circle cx="41.75" cy="41.5" r="40" fill="white"/>
<g clip-path="url(#clip1_201_2532)">
<path d="M6.125 12.474C7.74159 18.5873 10.1034 24.5344 13.1708 30.2153C14.6335 32.8925 16.8482 35.9357 20.3093 36.1142C23.4511 36.2837 26.0881 33.9813 29.2092 33.6332C34.1743 33.0889 37.9341 37.542 39.3041 41.665C40.6741 45.788 40.9935 50.5357 44.3103 53.7752C44.9058 54.4449 45.7564 54.9097 46.7105 55.087C48.7706 55.3369 50.3261 53.445 52.3347 52.9988C55.631 52.2759 58.1444 55.4708 59.5453 58.1569L68.8985 76.1035C63.0537 73.7528 61.214 73.2032 54.0596 70.2778C59.5787 68.4381 66.4265 64.9631 73.3897 62.3959C72.5588 66.7006 72.0478 69.5623 71.2265 73.2032" stroke="#2C4A43" stroke-width="2.22499" stroke-linecap="round" stroke-linejoin="round"/>
<path d="M27.3474 17.7529C29.2134 17.7529 30.7261 19.2656 30.7261 21.1316C30.7261 22.9976 29.2134 24.5103 27.3474 24.5103C25.4814 24.5103 23.9688 22.9976 23.9688 21.1316C23.9688 19.2656 25.4814 17.7529 27.3474 17.7529Z" fill="#6CE4BF"/>
<path d="M47.6267 32.6005C49.4927 32.6005 51.0054 34.1132 51.0054 35.9792C51.0054 37.8452 49.4927 39.3579 47.6267 39.3579C45.7607 39.3579 44.248 37.8452 44.248 35.9792C44.248 34.1132 45.7607 32.6005 47.6267 32.6005Z" fill="#6CE4BF"/>
<path d="M20.5886 44.2866C22.4546 44.2866 23.9673 45.7993 23.9673 47.6653C23.9673 49.5313 22.4546 51.0439 20.5886 51.0439C18.7226 51.0439 17.21 49.5313 17.21 47.6653C17.21 45.7993 18.7226 44.2866 20.5886 44.2866Z" fill="#6CE4BF"/>
<path d="M57.7556 17.7529C59.6216 17.7529 61.1343 19.2656 61.1343 21.1316C61.1343 22.9976 59.6216 24.5103 57.7556 24.5103C55.8896 24.5103 54.377 22.9976 54.377 21.1316C54.377 19.2656 55.8896 17.7529 57.7556 17.7529Z" fill="#6CE4BF"/>
<path d="M36.3718 61.7138C38.2378 61.7138 39.7505 63.2265 39.7505 65.0925C39.7505 66.9585 38.2378 68.4712 36.3718 68.4712C34.5059 68.4712 32.9932 66.9585 32.9932 65.0925C32.9932 63.2265 34.5059 61.7138 36.3718 61.7138Z" fill="#6CE4BF"/>
<path d="M68.4968 44.2866C70.3628 44.2866 71.8755 45.7993 71.8755 47.6653C71.8755 49.5313 70.3628 51.0439 68.4968 51.0439C66.6309 51.0439 65.1182 49.5313 65.1182 47.6653C65.1182 45.7993 66.6309 44.2866 68.4968 44.2866Z" fill="#6CE4BF"/>
</g>
</g>
<defs>
<clipPath id="clip0_201_2532">
<rect width="82" height="80" fill="white" transform="translate(0.75 0.5)"/>
</clipPath>
<clipPath id="clip1_201_2532">
<rect width="69.5" height="75.7217" fill="white" transform="translate(5 1.5)"/>
</clipPath>
</defs>
</svg>
