<svg width="241" height="241" viewBox="0 0 241 241" fill="none" xmlns="http://www.w3.org/2000/svg">
<g clip-path="url(#clip0_19227_6507)">
<rect width="240" height="240.004" transform="translate(0.078125)" fill="#B2F1DD"/>
<circle cx="120.078" cy="120" r="120" fill="white"/>
<path d="M69.5437 70.8744L126.489 65.9668L133.344 145.376L76.3994 150.284L69.5437 70.8744Z" fill="#FFE768"/>
<path d="M139.223 109.75L199.984 136.551L180.772 180.031L120.011 153.23L139.223 109.75Z" fill="#6CE4BF"/>
<path d="M182.581 131.849L149.943 118.977C137.508 114.075 124.266 108.509 117.15 97.2096C111.664 88.4911 110.733 77.7032 106.523 68.3139C105.94 67.0111 105.205 65.6479 103.908 65.0516C102.195 64.2635 100.081 65.1758 98.9337 66.6632C97.7861 68.1506 97.3597 70.0675 97.0222 71.9205C95.6812 79.2818 95.0695 86.7572 95.196 94.2383C90.8908 90.832 85.4776 89.1354 79.9965 89.4745C77.4881 89.6377 74.7843 90.3832 73.3524 92.4457C72.1125 94.2206 72.1267 96.6735 72.951 98.6863C73.7752 100.699 75.2888 102.336 76.9267 103.755C82.5581 108.7 90.3746 111.654 97.6653 109.882C98.5215 109.677 99.4418 109.339 99.8504 108.562C100.561 107.188 99.2108 105.665 97.9317 104.796C93.0642 101.487 87.3333 99.6909 81.606 98.3313C79.4067 97.8095 77.1328 97.3444 74.898 97.6923C72.6632 98.0402 70.4497 99.3679 69.6574 101.484C68.9468 103.404 69.4975 105.562 70.3005 107.451C74.4503 117.184 85.6208 123.393 96.0878 121.785C96.7735 121.679 97.509 121.508 97.9389 120.965C98.8911 119.744 97.509 118.083 96.2192 117.231C91.0329 113.807 85.1752 111.528 79.0372 110.546C74.9477 109.893 69.8848 110.305 67.9413 113.954C66.6338 116.407 67.3373 119.552 68.9894 121.789C70.6415 124.025 73.0789 125.537 75.502 126.9C81.2116 130.12 87.9195 132.935 94.1692 130.944C94.9757 130.688 95.8604 130.234 96.0665 129.424C96.34 128.324 95.2528 127.387 94.258 126.84C90.6873 124.863 86.6689 123.876 82.7038 122.907C79.1509 122.041 74.8234 121.377 72.3079 124.039C70.0695 126.411 70.5492 130.33 72.1693 133.162C75.875 139.641 83.9793 142.31 91.4689 142.449C92.8901 142.47 94.7128 142.094 94.9615 140.702C95.196 139.36 93.7464 138.391 92.5135 137.813C86.9389 135.186 80.4051 132.545 74.8553 135.228C74.9122 136.684 75.9212 137.919 76.9871 138.924C82.5475 144.248 90.5061 146.286 98.1876 146.733C105.869 147.181 113.565 146.215 121.253 146.456C133.841 146.833 156.282 158.6 168.717 163.57" stroke="#2C4A43" stroke-width="3.30487" stroke-linecap="round" stroke-linejoin="round"/>
</g>
<defs>
<clipPath id="clip0_19227_6507">
<rect width="240" height="240.004" fill="white" transform="translate(0.078125)"/>
</clipPath>
</defs>
</svg>
