<svg width="87" height="81" viewBox="0 0 87 81" fill="none" xmlns="http://www.w3.org/2000/svg">
<circle cx="43.75" cy="40.5" r="40" fill="white"/>
<path d="M19.4591 37.9856C22.8226 37.9856 25.5492 35.2787 25.5492 31.9395C25.5492 28.6003 22.8226 25.8933 19.4591 25.8933C16.0956 25.8933 13.369 28.6003 13.369 31.9395C13.369 35.2787 16.0956 37.9856 19.4591 37.9856Z" fill="#6CE4BF"/>
<path d="M2.47864 57.679C2.47864 53.0922 4.31399 48.6932 7.58093 45.4498C10.8479 42.2064 15.2788 40.3843 19.899 40.3843C22.1866 40.3843 24.4519 40.8316 26.5654 41.7008C28.679 42.5699 30.5994 43.8438 32.217 45.4498C33.8346 47.0557 35.1178 48.9623 35.9933 51.0606C36.8687 53.1589 37.3193 55.4078 37.3193 57.679H2.47864Z" fill="#6CE4BF"/>
<path d="M68.036 37.9856C71.3995 37.9856 74.1261 35.2787 74.1261 31.9395C74.1261 28.6003 71.3995 25.8933 68.036 25.8933C64.6725 25.8933 61.9459 28.6003 61.9459 31.9395C61.9459 35.2787 64.6725 37.9856 68.036 37.9856Z" fill="#6CE4BF"/>
<path d="M51.0555 57.6788C51.1674 53.1671 53.0514 48.8774 56.3051 45.7257C59.5589 42.574 63.9247 40.8098 68.4706 40.8098C73.0165 40.8098 77.3823 42.574 80.6361 45.7257C83.8898 48.8774 85.7737 53.1671 85.8856 57.6788H51.0555Z" fill="#6CE4BF"/>
<path d="M54.0224 64.679C51.573 29.714 75.02 45.4399 74.3725 30.8984C73.9871 22.2895 58.6361 23.0179 59.1112 32.296C59.398 37.9124 65.3509 39.4584 67.8355 39.6331C84.3936 40.7616 81.8879 59.5308 81.8879 59.5308L5.68123 59.9099C5.68123 59.9099 4.05885 45.5063 15.0794 41.1582C20.2949 39.0985 27.8068 37.0599 28.0232 31.1639C28.4068 20.6928 12.3942 21.3584 12.491 31.1639C12.5438 36.6074 16.8126 37.0144 24.7626 40.3965C37.4461 45.7928 36.2425 56.5173 35.7111 65.4459" stroke="#2C4A43" stroke-width="2" stroke-linecap="round" stroke-linejoin="round"/>
<path d="M31.4701 34.4287C33.8707 33.3389 34.5153 29.2331 34.5153 29.2331C34.5153 29.2331 28.8231 26.3106 31.1116 19.4421C32.7489 14.527 36.9119 13.1203 42.5804 12.6307C54.0492 11.6396 61.0201 23.3426 51.8187 29.9839C48.2594 32.5557 40.2879 32.8414 37.4642 30.4476C37.4642 30.4476 34.8409 33.8247 31.2329 33.1506" stroke="#2C4A43" stroke-width="2" stroke-linecap="round" stroke-linejoin="round"/>
<ellipse cx="38.5641" cy="22.2144" rx="1.51256" ry="1.5" fill="#2C4A43"/>
<ellipse cx="43.1018" cy="22.2144" rx="1.51256" ry="1.5" fill="#2C4A43"/>
<ellipse cx="47.6395" cy="22.2144" rx="1.51256" ry="1.5" fill="#2C4A43"/>
</svg>
