<svg width="83" height="83" viewBox="0 0 83 83" fill="none" xmlns="http://www.w3.org/2000/svg">
<circle cx="41.25" cy="41.5" r="40" fill="white"/>
<path d="M40.5502 68.104C59.107 68.104 74.1502 53.3741 74.1502 35.204C74.1502 17.0338 59.107 2.30396 40.5502 2.30396C21.9934 2.30396 6.9502 17.0338 6.9502 35.204C6.9502 53.3741 21.9934 68.104 40.5502 68.104Z" fill="white"/>
<path d="M23.7511 25.4079C24.4511 20.5079 32.1511 9.30793 41.9511 22.6079C48.9511 13.5119 56.6502 22.6079 55.9502 29.6039C55.2502 36.5999 48.9502 46.4039 34.9511 48.5039C27.9511 37.3039 23.0511 30.3079 23.7511 25.4079Z" fill="#6CE4BF"/>
<path d="M24.2909 79.4779C39.2762 62.2658 17.8131 49.4191 15.8722 37.0951C10.0258 5.03015 60.8563 -2.00069 63.2369 27.0645C63.8496 34.5333 65.5848 39.2754 71.6276 43.7115C69.4761 45.2561 67.0113 46.3534 64.4295 46.9185C64.9627 52.2634 65.2293 59.9253 60.0658 63.0946C52.8444 67.5353 36.4466 49.8099 36.4466 49.8099C12.8508 25.5764 27.4012 14.9006 35.0482 16.3746C40.3707 17.7309 42.5689 25.0772 41.6803 26.975C40.67 29.0894 37.4241 27.3188 41.1845 22.6896C44.7344 18.3101 54.0839 16.3134 55.3092 25.9531C57.1614 40.5893 37.9152 50.7518 29.4404 47.9215" stroke="#2C4A43" stroke-width="2" stroke-linecap="round" stroke-linejoin="round"/>
</svg>
