<svg width="177" height="166" viewBox="0 0 177 166" fill="none" xmlns="http://www.w3.org/2000/svg">
<g clip-path="url(#clip0_19845_10957)">
<path fill-rule="evenodd" clip-rule="evenodd" d="M34.7956 28.1934L37.108 21.1523H44.5912L38.5371 16.8007L40.8496 9.75957L34.7956 14.1112L28.7415 9.75957L31.0539 16.8007L25 21.1523H32.4832L34.7956 28.1934Z" fill="#2C4A43"/>
<path fill-rule="evenodd" clip-rule="evenodd" d="M61.5846 28.1934L63.897 21.1523H71.3802L65.3262 16.8007L67.6387 9.75957L61.5846 14.1112L55.5306 9.75957L57.843 16.8007L51.7891 21.1523H59.2723L61.5846 28.1934Z" fill="#2C4A43"/>
<path fill-rule="evenodd" clip-rule="evenodd" d="M88.3737 28.1934L90.6861 21.1523H98.1693L92.1152 16.8007L94.4278 9.75957L88.3737 14.1112L82.3196 9.75957L84.632 16.8007L78.5781 21.1523H86.0613L88.3737 28.1934Z" fill="#2C4A43"/>
<path fill-rule="evenodd" clip-rule="evenodd" d="M115.155 28.1934L117.467 21.1523H124.951L118.896 16.8007L121.209 9.75957L115.155 14.1112L109.101 9.75957L111.413 16.8007L105.359 21.1523H112.843L115.155 28.1934Z" fill="#2C4A43"/>
<path fill-rule="evenodd" clip-rule="evenodd" d="M141.952 28.1934L144.264 21.1523H151.747L145.693 16.8007L148.006 9.75957L141.952 14.1112L135.898 9.75957L138.21 16.8007L132.156 21.1523H139.639L141.952 28.1934Z" fill="#C2C6BF"/>
<g clip-path="url(#clip1_19845_10957)">
<path fill-rule="evenodd" clip-rule="evenodd" d="M141.952 28.1934L144.264 21.1523H151.747L145.693 16.8007L148.006 9.75957L141.952 14.1112L135.898 9.75957L138.21 16.8007L132.156 21.1523H139.639L141.952 28.1934Z" fill="#2C4A43"/>
</g>
<path d="M6.68569 53V50.6H1.00569V49.56L6.44569 41.8H8.01369V49.416H9.67769V50.6H8.01369V53H6.68569ZM2.49369 49.416H6.74969V43.288L2.49369 49.416ZM11.6852 53.08C11.4185 53.08 11.1945 52.9947 11.0132 52.824C10.8425 52.6427 10.7572 52.424 10.7572 52.168C10.7572 51.912 10.8425 51.6987 11.0132 51.528C11.1945 51.3467 11.4185 51.256 11.6852 51.256C11.9412 51.256 12.1545 51.3467 12.3252 51.528C12.5065 51.6987 12.5972 51.912 12.5972 52.168C12.5972 52.424 12.5065 52.6427 12.3252 52.824C12.1545 52.9947 11.9412 53.08 11.6852 53.08ZM14.2502 53V52.056C15.0075 51.4587 15.7222 50.856 16.3942 50.248C17.0769 49.6293 17.6795 49.0213 18.2022 48.424C18.7355 47.8267 19.1515 47.24 19.4502 46.664C19.7595 46.088 19.9142 45.5333 19.9142 45C19.9142 44.6053 19.8449 44.2373 19.7062 43.896C19.5782 43.5547 19.3649 43.2827 19.0662 43.08C18.7675 42.8667 18.3622 42.76 17.8502 42.76C17.3595 42.76 16.9489 42.872 16.6182 43.096C16.2875 43.3093 16.0369 43.5973 15.8662 43.96C15.7062 44.3227 15.6262 44.712 15.6262 45.128H14.3302C14.3302 44.392 14.4849 43.7627 14.7942 43.24C15.1035 42.7067 15.5249 42.3013 16.0582 42.024C16.5915 41.7467 17.1942 41.608 17.8662 41.608C18.8582 41.608 19.6689 41.8907 20.2982 42.456C20.9382 43.0107 21.2582 43.8427 21.2582 44.952C21.2582 45.6133 21.0929 46.2693 20.7622 46.92C20.4315 47.56 20.0102 48.184 19.4982 48.792C18.9862 49.3893 18.4369 49.9493 17.8502 50.472C17.2742 50.9947 16.7355 51.464 16.2342 51.88H21.6422V53H14.2502ZM30.7768 53.192C29.8275 53.192 29.0381 52.952 28.4088 52.472C27.7795 51.992 27.4115 51.3413 27.3048 50.52H28.6808C28.7661 50.936 28.9848 51.2987 29.3368 51.608C29.6995 51.9067 30.1848 52.056 30.7928 52.056C31.3581 52.056 31.7741 51.9387 32.0408 51.704C32.3075 51.4587 32.4408 51.1707 32.4408 50.84C32.4408 50.36 32.2648 50.04 31.9128 49.88C31.5715 49.72 31.0861 49.576 30.4568 49.448C30.0301 49.3627 29.6035 49.24 29.1768 49.08C28.7501 48.92 28.3928 48.696 28.1048 48.408C27.8168 48.1093 27.6728 47.72 27.6728 47.24C27.6728 46.5467 27.9288 45.9813 28.4408 45.544C28.9635 45.096 29.6675 44.872 30.5528 44.872C31.3955 44.872 32.0835 45.0853 32.6168 45.512C33.1608 45.928 33.4755 46.5253 33.5608 47.304H32.2328C32.1795 46.8987 32.0035 46.584 31.7048 46.36C31.4168 46.1253 31.0275 46.008 30.5368 46.008C30.0568 46.008 29.6835 46.1093 29.4168 46.312C29.1608 46.5147 29.0328 46.7813 29.0328 47.112C29.0328 47.432 29.1981 47.6827 29.5288 47.864C29.8701 48.0453 30.3288 48.2 30.9048 48.328C31.3955 48.4347 31.8595 48.568 32.2968 48.728C32.7448 48.8773 33.1075 49.1067 33.3848 49.416C33.6728 49.7147 33.8168 50.152 33.8168 50.728C33.8275 51.4427 33.5555 52.0347 33.0008 52.504C32.4568 52.9627 31.7155 53.192 30.7768 53.192ZM38.5134 53C37.7881 53 37.2174 52.824 36.8014 52.472C36.3854 52.12 36.1774 51.4853 36.1774 50.568V46.2H34.8014V45.064H36.1774L36.3534 43.16H37.5214V45.064H39.8574V46.2H37.5214V50.568C37.5214 51.0693 37.6228 51.4107 37.8254 51.592C38.0281 51.7627 38.3854 51.848 38.8974 51.848H39.7294V53H38.5134ZM44.2049 53.192C43.5436 53.192 42.9943 53.08 42.5569 52.856C42.1196 52.632 41.7943 52.3333 41.5809 51.96C41.3676 51.5867 41.2609 51.1813 41.2609 50.744C41.2609 49.9333 41.5703 49.3093 42.1889 48.872C42.8076 48.4347 43.6503 48.216 44.7169 48.216H46.8609V48.12C46.8609 47.4267 46.6796 46.904 46.3169 46.552C45.9543 46.1893 45.4689 46.008 44.8609 46.008C44.3383 46.008 43.8849 46.1413 43.5009 46.408C43.1276 46.664 42.8929 47.0427 42.7969 47.544H41.4209C41.4743 46.968 41.6663 46.4827 41.9969 46.088C42.3383 45.6933 42.7596 45.3947 43.2609 45.192C43.7623 44.9787 44.2956 44.872 44.8609 44.872C45.9703 44.872 46.8023 45.1707 47.3569 45.768C47.9223 46.3547 48.2049 47.1387 48.2049 48.12V53H47.0049L46.9249 51.576C46.7009 52.024 46.3703 52.408 45.9329 52.728C45.5063 53.0373 44.9303 53.192 44.2049 53.192ZM44.4129 52.056C44.9249 52.056 45.3623 51.9227 45.7249 51.656C46.0983 51.3893 46.3809 51.0427 46.5729 50.616C46.7649 50.1893 46.8609 49.7413 46.8609 49.272V49.256H44.8289C44.0396 49.256 43.4796 49.3947 43.1489 49.672C42.8289 49.9387 42.6689 50.2747 42.6689 50.68C42.6689 51.096 42.8183 51.432 43.1169 51.688C43.4263 51.9333 43.8583 52.056 44.4129 52.056ZM50.2212 53V45.064H51.4372L51.5492 46.584C51.7945 46.0613 52.1679 45.6453 52.6692 45.336C53.1705 45.0267 53.7892 44.872 54.5252 44.872V46.28H54.1572C53.6879 46.28 53.2559 46.3653 52.8612 46.536C52.4665 46.696 52.1519 46.9733 51.9172 47.368C51.6825 47.7627 51.5652 48.3067 51.5652 49V53H50.2212ZM59.0737 53.192C58.1244 53.192 57.335 52.952 56.7057 52.472C56.0764 51.992 55.7084 51.3413 55.6017 50.52H56.9777C57.063 50.936 57.2817 51.2987 57.6337 51.608C57.9964 51.9067 58.4817 52.056 59.0897 52.056C59.655 52.056 60.071 51.9387 60.3377 51.704C60.6044 51.4587 60.7377 51.1707 60.7377 50.84C60.7377 50.36 60.5617 50.04 60.2097 49.88C59.8684 49.72 59.383 49.576 58.7537 49.448C58.327 49.3627 57.9004 49.24 57.4737 49.08C57.047 48.92 56.6897 48.696 56.4017 48.408C56.1137 48.1093 55.9697 47.72 55.9697 47.24C55.9697 46.5467 56.2257 45.9813 56.7377 45.544C57.2604 45.096 57.9644 44.872 58.8497 44.872C59.6924 44.872 60.3804 45.0853 60.9137 45.512C61.4577 45.928 61.7724 46.5253 61.8577 47.304H60.5297C60.4764 46.8987 60.3004 46.584 60.0017 46.36C59.7137 46.1253 59.3244 46.008 58.8337 46.008C58.3537 46.008 57.9804 46.1093 57.7137 46.312C57.4577 46.5147 57.3297 46.7813 57.3297 47.112C57.3297 47.432 57.495 47.6827 57.8257 47.864C58.167 48.0453 58.6257 48.2 59.2017 48.328C59.6924 48.4347 60.1564 48.568 60.5937 48.728C61.0417 48.8773 61.4044 49.1067 61.6817 49.416C61.9697 49.7147 62.1137 50.152 62.1137 50.728C62.1244 51.4427 61.8524 52.0347 61.2977 52.504C60.7537 52.9627 60.0124 53.192 59.0737 53.192ZM71.8841 53.192C71.1374 53.192 70.4654 53.0213 69.8681 52.68C69.2707 52.3387 68.7961 51.8587 68.4441 51.24C68.1027 50.6107 67.9321 49.8747 67.9321 49.032C67.9321 48.1893 68.1081 47.4587 68.4601 46.84C68.8121 46.2107 69.2867 45.7253 69.8841 45.384C70.4921 45.0427 71.1694 44.872 71.9161 44.872C72.6627 44.872 73.3347 45.0427 73.9321 45.384C74.5294 45.7253 74.9987 46.2107 75.3401 46.84C75.6921 47.4587 75.8681 48.1893 75.8681 49.032C75.8681 49.8747 75.6921 50.6107 75.3401 51.24C74.9881 51.8587 74.5081 52.3387 73.9001 52.68C73.3027 53.0213 72.6307 53.192 71.8841 53.192ZM71.8841 52.04C72.3427 52.04 72.7694 51.928 73.1641 51.704C73.5587 51.48 73.8787 51.144 74.1241 50.696C74.3694 50.248 74.4921 49.6933 74.4921 49.032C74.4921 48.3707 74.3694 47.816 74.1241 47.368C73.8894 46.92 73.5747 46.584 73.1801 46.36C72.7854 46.136 72.3641 46.024 71.9161 46.024C71.4574 46.024 71.0307 46.136 70.6361 46.36C70.2414 46.584 69.9214 46.92 69.6761 47.368C69.4307 47.816 69.3081 48.3707 69.3081 49.032C69.3081 49.6933 69.4307 50.248 69.6761 50.696C69.9214 51.144 70.2361 51.48 70.6201 51.704C71.0147 51.928 71.4361 52.04 71.8841 52.04ZM77.7368 53V45.064H78.9528L79.0328 46.488C79.2888 45.9867 79.6568 45.592 80.1368 45.304C80.6168 45.016 81.1608 44.872 81.7688 44.872C82.7075 44.872 83.4541 45.16 84.0088 45.736C84.5741 46.3013 84.8568 47.176 84.8568 48.36V53H83.5128V48.504C83.5128 46.8507 82.8301 46.024 81.4648 46.024C80.7821 46.024 80.2115 46.2747 79.7528 46.776C79.3048 47.2667 79.0808 47.9707 79.0808 48.888V53H77.7368ZM96.0234 53.192C94.9781 53.192 94.0608 52.952 93.2714 52.472C92.4821 51.9813 91.8688 51.304 91.4314 50.44C90.9941 49.5653 90.7754 48.5573 90.7754 47.416C90.7754 46.2747 90.9941 45.2667 91.4314 44.392C91.8794 43.5173 92.5088 42.8347 93.3194 42.344C94.1408 41.8533 95.1061 41.608 96.2154 41.608C97.4741 41.608 98.5194 41.912 99.3514 42.52C100.194 43.128 100.738 43.9653 100.983 45.032H99.4314C99.2821 44.36 98.9248 43.8267 98.3594 43.432C97.8048 43.0373 97.0901 42.84 96.2154 42.84C95.3941 42.84 94.6794 43.0267 94.0714 43.4C93.4634 43.7627 92.9888 44.2853 92.6474 44.968C92.3168 45.6507 92.1514 46.4667 92.1514 47.416C92.1514 48.3653 92.3168 49.1813 92.6474 49.864C92.9781 50.5467 93.4368 51.0747 94.0234 51.448C94.6101 51.8107 95.2928 51.992 96.0714 51.992C97.2661 51.992 98.1674 51.6453 98.7754 50.952C99.3834 50.248 99.7301 49.288 99.8154 48.072H96.5834V47.016H101.191V53H99.9594L99.8474 51.16C99.4421 51.8107 98.9461 52.312 98.3594 52.664C97.7728 53.016 96.9941 53.192 96.0234 53.192ZM106.853 53.192C106.106 53.192 105.434 53.0213 104.837 52.68C104.239 52.3387 103.765 51.8587 103.413 51.24C103.071 50.6107 102.901 49.8747 102.901 49.032C102.901 48.1893 103.077 47.4587 103.429 46.84C103.781 46.2107 104.255 45.7253 104.853 45.384C105.461 45.0427 106.138 44.872 106.885 44.872C107.631 44.872 108.303 45.0427 108.901 45.384C109.498 45.7253 109.967 46.2107 110.309 46.84C110.661 47.4587 110.837 48.1893 110.837 49.032C110.837 49.8747 110.661 50.6107 110.309 51.24C109.957 51.8587 109.477 52.3387 108.869 52.68C108.271 53.0213 107.599 53.192 106.853 53.192ZM106.853 52.04C107.311 52.04 107.738 51.928 108.133 51.704C108.527 51.48 108.847 51.144 109.093 50.696C109.338 50.248 109.461 49.6933 109.461 49.032C109.461 48.3707 109.338 47.816 109.093 47.368C108.858 46.92 108.543 46.584 108.149 46.36C107.754 46.136 107.333 46.024 106.885 46.024C106.426 46.024 105.999 46.136 105.605 46.36C105.21 46.584 104.89 46.92 104.645 47.368C104.399 47.816 104.277 48.3707 104.277 49.032C104.277 49.6933 104.399 50.248 104.645 50.696C104.89 51.144 105.205 51.48 105.589 51.704C105.983 51.928 106.405 52.04 106.853 52.04ZM116.322 53.192C115.575 53.192 114.903 53.0213 114.306 52.68C113.708 52.3387 113.234 51.8587 112.882 51.24C112.54 50.6107 112.37 49.8747 112.37 49.032C112.37 48.1893 112.546 47.4587 112.898 46.84C113.25 46.2107 113.724 45.7253 114.322 45.384C114.93 45.0427 115.607 44.872 116.354 44.872C117.1 44.872 117.772 45.0427 118.37 45.384C118.967 45.7253 119.436 46.2107 119.778 46.84C120.13 47.4587 120.306 48.1893 120.306 49.032C120.306 49.8747 120.13 50.6107 119.778 51.24C119.426 51.8587 118.946 52.3387 118.338 52.68C117.74 53.0213 117.068 53.192 116.322 53.192ZM116.322 52.04C116.78 52.04 117.207 51.928 117.602 51.704C117.996 51.48 118.316 51.144 118.562 50.696C118.807 50.248 118.93 49.6933 118.93 49.032C118.93 48.3707 118.807 47.816 118.562 47.368C118.327 46.92 118.012 46.584 117.618 46.36C117.223 46.136 116.802 46.024 116.354 46.024C115.895 46.024 115.468 46.136 115.074 46.36C114.679 46.584 114.359 46.92 114.114 47.368C113.868 47.816 113.746 48.3707 113.746 49.032C113.746 49.6933 113.868 50.248 114.114 50.696C114.359 51.144 114.674 51.48 115.058 51.704C115.452 51.928 115.874 52.04 116.322 52.04ZM124.967 50.504C124.519 50.504 124.108 50.4453 123.735 50.328L122.935 51.08C123.052 51.1653 123.196 51.24 123.367 51.304C123.548 51.3573 123.804 51.4107 124.135 51.464C124.465 51.5067 124.929 51.5547 125.527 51.608C126.593 51.6827 127.356 51.928 127.815 52.344C128.273 52.76 128.503 53.304 128.503 53.976C128.503 54.4347 128.375 54.872 128.119 55.288C127.873 55.704 127.489 56.0453 126.967 56.312C126.455 56.5787 125.793 56.712 124.983 56.712C124.268 56.712 123.633 56.616 123.079 56.424C122.524 56.2427 122.092 55.96 121.783 55.576C121.473 55.2027 121.319 54.728 121.319 54.152C121.319 53.8533 121.399 53.528 121.559 53.176C121.719 52.8347 122.017 52.5093 122.455 52.2C122.22 52.104 122.017 52.0027 121.847 51.896C121.687 51.7787 121.537 51.6507 121.399 51.512V51.144L122.759 49.8C122.129 49.2667 121.815 48.5627 121.815 47.688C121.815 47.1653 121.937 46.6907 122.183 46.264C122.428 45.8373 122.785 45.5013 123.255 45.256C123.724 45 124.295 44.872 124.967 44.872C125.425 44.872 125.841 44.936 126.215 45.064H129.143V46.072L127.655 46.136C127.964 46.584 128.119 47.1013 128.119 47.688C128.119 48.2107 127.991 48.6853 127.735 49.112C127.489 49.5387 127.132 49.88 126.663 50.136C126.204 50.3813 125.639 50.504 124.967 50.504ZM124.967 49.4C125.532 49.4 125.98 49.256 126.311 48.968C126.652 48.6693 126.823 48.2427 126.823 47.688C126.823 47.144 126.652 46.728 126.311 46.44C125.98 46.1413 125.532 45.992 124.967 45.992C124.391 45.992 123.932 46.1413 123.591 46.44C123.26 46.728 123.095 47.144 123.095 47.688C123.095 48.2427 123.26 48.6693 123.591 48.968C123.932 49.256 124.391 49.4 124.967 49.4ZM122.631 54.024C122.631 54.5573 122.855 54.952 123.303 55.208C123.751 55.4747 124.311 55.608 124.983 55.608C125.644 55.608 126.172 55.464 126.567 55.176C126.972 54.888 127.175 54.504 127.175 54.024C127.175 53.6827 127.036 53.384 126.759 53.128C126.481 52.8827 125.969 52.7387 125.223 52.696C124.636 52.6533 124.129 52.6 123.703 52.536C123.265 52.7707 122.977 53.0213 122.839 53.288C122.7 53.5653 122.631 53.8107 122.631 54.024ZM130.659 53V41.48H132.003V53H130.659ZM137.774 53.192C137.016 53.192 136.344 53.0213 135.758 52.68C135.171 52.328 134.707 51.8427 134.366 51.224C134.035 50.6053 133.87 49.8747 133.87 49.032C133.87 48.2 134.035 47.4747 134.366 46.856C134.696 46.2267 135.155 45.7413 135.742 45.4C136.339 45.048 137.027 44.872 137.806 44.872C138.574 44.872 139.235 45.048 139.79 45.4C140.355 45.7413 140.787 46.1947 141.086 46.76C141.384 47.3253 141.534 47.9333 141.534 48.584C141.534 48.7013 141.528 48.8187 141.518 48.936C141.518 49.0533 141.518 49.1867 141.518 49.336H135.198C135.23 49.944 135.368 50.4507 135.614 50.856C135.87 51.2507 136.184 51.5493 136.558 51.752C136.942 51.9547 137.347 52.056 137.774 52.056C138.328 52.056 138.792 51.928 139.166 51.672C139.539 51.416 139.811 51.0693 139.982 50.632H141.31C141.096 51.368 140.686 51.9813 140.078 52.472C139.48 52.952 138.712 53.192 137.774 53.192ZM137.774 46.008C137.134 46.008 136.563 46.2053 136.062 46.6C135.571 46.984 135.288 47.5493 135.214 48.296H140.206C140.174 47.5813 139.928 47.0213 139.47 46.616C139.011 46.2107 138.446 46.008 137.774 46.008ZM147.629 53V41.8H151.309C152.184 41.8 152.904 41.944 153.469 42.232C154.035 42.52 154.451 42.9093 154.717 43.4C154.995 43.8907 155.133 44.4453 155.133 45.064C155.133 45.672 155 46.2213 154.733 46.712C154.467 47.2027 154.051 47.5973 153.485 47.896C152.92 48.184 152.195 48.328 151.309 48.328H148.973V53H147.629ZM148.973 47.192H151.277C152.173 47.192 152.808 47.0053 153.181 46.632C153.565 46.248 153.757 45.7253 153.757 45.064C153.757 44.392 153.565 43.8693 153.181 43.496C152.808 43.112 152.173 42.92 151.277 42.92H148.973V47.192ZM156.815 53V41.48H158.159V53H156.815ZM163.002 53.192C162.34 53.192 161.791 53.08 161.354 52.856C160.916 52.632 160.591 52.3333 160.378 51.96C160.164 51.5867 160.058 51.1813 160.058 50.744C160.058 49.9333 160.367 49.3093 160.986 48.872C161.604 48.4347 162.447 48.216 163.514 48.216H165.658V48.12C165.658 47.4267 165.476 46.904 165.114 46.552C164.751 46.1893 164.266 46.008 163.658 46.008C163.135 46.008 162.682 46.1413 162.298 46.408C161.924 46.664 161.69 47.0427 161.594 47.544H160.218C160.271 46.968 160.463 46.4827 160.794 46.088C161.135 45.6933 161.556 45.3947 162.058 45.192C162.559 44.9787 163.092 44.872 163.658 44.872C164.767 44.872 165.599 45.1707 166.154 45.768C166.719 46.3547 167.002 47.1387 167.002 48.12V53H165.802L165.722 51.576C165.498 52.024 165.167 52.408 164.73 52.728C164.303 53.0373 163.727 53.192 163.002 53.192ZM163.21 52.056C163.722 52.056 164.159 51.9227 164.522 51.656C164.895 51.3893 165.178 51.0427 165.37 50.616C165.562 50.1893 165.658 49.7413 165.658 49.272V49.256H163.626C162.836 49.256 162.276 49.3947 161.946 49.672C161.626 49.9387 161.466 50.2747 161.466 50.68C161.466 51.096 161.615 51.432 161.914 51.688C162.223 51.9333 162.655 52.056 163.21 52.056ZM169.648 56.52L171.616 52.232H171.152L168 45.064H169.456L172.08 51.24L174.864 45.064H176.256L171.056 56.52H169.648Z" fill="#2C4A43"/>
<path fill-rule="evenodd" clip-rule="evenodd" d="M34.7956 119.193L37.108 112.152H44.5912L38.5371 107.801L40.8496 100.76L34.7956 105.111L28.7415 100.76L31.0539 107.801L25 112.152H32.4832L34.7956 119.193Z" fill="#2C4A43"/>
<path fill-rule="evenodd" clip-rule="evenodd" d="M61.5846 119.193L63.897 112.152H71.3802L65.3262 107.801L67.6387 100.76L61.5846 105.111L55.5306 100.76L57.843 107.801L51.7891 112.152H59.2723L61.5846 119.193Z" fill="#2C4A43"/>
<path fill-rule="evenodd" clip-rule="evenodd" d="M88.3737 119.193L90.6861 112.152H98.1693L92.1152 107.801L94.4278 100.76L88.3737 105.111L82.3196 100.76L84.632 107.801L78.5781 112.152H86.0613L88.3737 119.193Z" fill="#2C4A43"/>
<path fill-rule="evenodd" clip-rule="evenodd" d="M115.155 119.193L117.467 112.152H124.951L118.896 107.801L121.209 100.76L115.155 105.111L109.101 100.76L111.413 107.801L105.359 112.152H112.843L115.155 119.193Z" fill="#2C4A43"/>
<path fill-rule="evenodd" clip-rule="evenodd" d="M141.952 119.193L144.264 112.152H151.747L145.693 107.801L148.006 100.76L141.952 105.111L135.898 100.76L138.21 107.801L132.156 112.152H139.639L141.952 119.193Z" fill="#2C4A43"/>
<path d="M12.6076 143.93V141.53H6.92756V140.49L12.3676 132.73H13.9356V140.346H15.5996V141.53H13.9356V143.93H12.6076ZM8.41556 140.346H12.6716V134.218L8.41556 140.346ZM17.6071 144.01C17.3404 144.01 17.1164 143.924 16.9351 143.754C16.7644 143.572 16.6791 143.354 16.6791 143.098C16.6791 142.842 16.7644 142.628 16.9351 142.458C17.1164 142.276 17.3404 142.186 17.6071 142.186C17.8631 142.186 18.0764 142.276 18.2471 142.458C18.4284 142.628 18.5191 142.842 18.5191 143.098C18.5191 143.354 18.4284 143.572 18.2471 143.754C18.0764 143.924 17.8631 144.01 17.6071 144.01ZM23.5597 144.122C22.8557 144.122 22.253 143.983 21.7517 143.706C21.2504 143.428 20.8504 143.06 20.5517 142.602C20.2637 142.132 20.0877 141.615 20.0237 141.05H21.2717C21.3784 141.658 21.6344 142.127 22.0397 142.458C22.445 142.788 22.957 142.954 23.5757 142.954C24.429 142.954 25.1384 142.559 25.7037 141.77C26.269 140.97 26.573 139.727 26.6157 138.042C26.3597 138.543 25.949 138.98 25.3837 139.354C24.829 139.716 24.157 139.898 23.3677 139.898C22.7384 139.898 22.141 139.748 21.5757 139.45C21.0104 139.151 20.5517 138.735 20.1997 138.202C19.8477 137.658 19.6717 137.023 19.6717 136.298C19.6717 135.668 19.8264 135.066 20.1357 134.49C20.4557 133.914 20.9037 133.444 21.4797 133.082C22.0557 132.719 22.7437 132.538 23.5437 132.538C24.3544 132.538 25.037 132.692 25.5917 133.002C26.1464 133.3 26.589 133.706 26.9197 134.218C27.261 134.73 27.5064 135.306 27.6557 135.946C27.8157 136.575 27.8957 137.22 27.8957 137.882C27.8957 139.119 27.725 140.207 27.3837 141.146C27.0424 142.074 26.5464 142.804 25.8957 143.338C25.2557 143.86 24.477 144.122 23.5597 144.122ZM23.6397 138.73C24.141 138.73 24.589 138.618 24.9837 138.394C25.3784 138.159 25.693 137.85 25.9277 137.466C26.1624 137.082 26.2797 136.666 26.2797 136.218C26.2797 135.738 26.1624 135.311 25.9277 134.938C25.693 134.554 25.3784 134.255 24.9837 134.042C24.589 133.828 24.141 133.722 23.6397 133.722C23.1384 133.722 22.6904 133.828 22.2957 134.042C21.901 134.255 21.5917 134.554 21.3677 134.938C21.1437 135.311 21.0317 135.743 21.0317 136.234C21.0317 136.991 21.277 137.599 21.7677 138.058C22.269 138.506 22.893 138.73 23.6397 138.73ZM37.1362 144.122C36.1869 144.122 35.3975 143.882 34.7682 143.402C34.1389 142.922 33.7709 142.271 33.6642 141.45H35.0402C35.1255 141.866 35.3442 142.228 35.6962 142.538C36.0589 142.836 36.5442 142.986 37.1522 142.986C37.7175 142.986 38.1335 142.868 38.4002 142.634C38.6669 142.388 38.8002 142.1 38.8002 141.77C38.8002 141.29 38.6242 140.97 38.2722 140.81C37.9309 140.65 37.4455 140.506 36.8162 140.378C36.3895 140.292 35.9629 140.17 35.5362 140.01C35.1095 139.85 34.7522 139.626 34.4642 139.338C34.1762 139.039 34.0322 138.65 34.0322 138.17C34.0322 137.476 34.2882 136.911 34.8002 136.474C35.3229 136.026 36.0269 135.802 36.9122 135.802C37.7549 135.802 38.4429 136.015 38.9762 136.442C39.5202 136.858 39.8349 137.455 39.9202 138.234H38.5922C38.5389 137.828 38.3629 137.514 38.0642 137.29C37.7762 137.055 37.3869 136.938 36.8962 136.938C36.4162 136.938 36.0429 137.039 35.7762 137.242C35.5202 137.444 35.3922 137.711 35.3922 138.042C35.3922 138.362 35.5575 138.612 35.8882 138.794C36.2295 138.975 36.6882 139.13 37.2642 139.258C37.7549 139.364 38.2189 139.498 38.6562 139.658C39.1042 139.807 39.4669 140.036 39.7442 140.346C40.0322 140.644 40.1762 141.082 40.1762 141.658C40.1869 142.372 39.9149 142.964 39.3602 143.434C38.8162 143.892 38.0749 144.122 37.1362 144.122ZM44.8728 143.93C44.1475 143.93 43.5768 143.754 43.1608 143.402C42.7448 143.05 42.5368 142.415 42.5368 141.498V137.13H41.1608V135.994H42.5368L42.7128 134.09H43.8808V135.994H46.2168V137.13H43.8808V141.498C43.8808 141.999 43.9821 142.34 44.1848 142.522C44.3875 142.692 44.7448 142.778 45.2568 142.778H46.0888V143.93H44.8728ZM50.5643 144.122C49.903 144.122 49.3536 144.01 48.9163 143.786C48.479 143.562 48.1536 143.263 47.9403 142.89C47.727 142.516 47.6203 142.111 47.6203 141.674C47.6203 140.863 47.9296 140.239 48.5483 139.802C49.167 139.364 50.0096 139.146 51.0763 139.146H53.2203V139.05C53.2203 138.356 53.039 137.834 52.6763 137.482C52.3136 137.119 51.8283 136.938 51.2203 136.938C50.6976 136.938 50.2443 137.071 49.8603 137.338C49.487 137.594 49.2523 137.972 49.1563 138.474H47.7803C47.8336 137.898 48.0256 137.412 48.3563 137.018C48.6976 136.623 49.119 136.324 49.6203 136.122C50.1216 135.908 50.655 135.802 51.2203 135.802C52.3296 135.802 53.1616 136.1 53.7163 136.698C54.2816 137.284 54.5643 138.068 54.5643 139.05V143.93H53.3643L53.2843 142.506C53.0603 142.954 52.7296 143.338 52.2923 143.658C51.8656 143.967 51.2896 144.122 50.5643 144.122ZM50.7723 142.986C51.2843 142.986 51.7216 142.852 52.0843 142.586C52.4576 142.319 52.7403 141.972 52.9323 141.546C53.1243 141.119 53.2203 140.671 53.2203 140.202V140.186H51.1883C50.399 140.186 49.839 140.324 49.5083 140.602C49.1883 140.868 49.0283 141.204 49.0283 141.61C49.0283 142.026 49.1776 142.362 49.4763 142.618C49.7856 142.863 50.2176 142.986 50.7723 142.986ZM56.5806 143.93V135.994H57.7966L57.9086 137.514C58.1539 136.991 58.5272 136.575 59.0286 136.266C59.5299 135.956 60.1486 135.802 60.8846 135.802V137.21H60.5166C60.0472 137.21 59.6152 137.295 59.2206 137.466C58.8259 137.626 58.5112 137.903 58.2766 138.298C58.0419 138.692 57.9246 139.236 57.9246 139.93V143.93H56.5806ZM65.4331 144.122C64.4837 144.122 63.6944 143.882 63.0651 143.402C62.4357 142.922 62.0677 142.271 61.9611 141.45H63.3371C63.4224 141.866 63.6411 142.228 63.9931 142.538C64.3557 142.836 64.8411 142.986 65.4491 142.986C66.0144 142.986 66.4304 142.868 66.6971 142.634C66.9637 142.388 67.0971 142.1 67.0971 141.77C67.0971 141.29 66.9211 140.97 66.5691 140.81C66.2277 140.65 65.7424 140.506 65.1131 140.378C64.6864 140.292 64.2597 140.17 63.8331 140.01C63.4064 139.85 63.0491 139.626 62.7611 139.338C62.4731 139.039 62.3291 138.65 62.3291 138.17C62.3291 137.476 62.5851 136.911 63.0971 136.474C63.6197 136.026 64.3237 135.802 65.2091 135.802C66.0517 135.802 66.7397 136.015 67.2731 136.442C67.8171 136.858 68.1317 137.455 68.2171 138.234H66.8891C66.8357 137.828 66.6597 137.514 66.3611 137.29C66.0731 137.055 65.6837 136.938 65.1931 136.938C64.7131 136.938 64.3397 137.039 64.0731 137.242C63.8171 137.444 63.6891 137.711 63.6891 138.042C63.6891 138.362 63.8544 138.612 64.1851 138.794C64.5264 138.975 64.9851 139.13 65.5611 139.258C66.0517 139.364 66.5157 139.498 66.9531 139.658C67.4011 139.807 67.7637 140.036 68.0411 140.346C68.3291 140.644 68.4731 141.082 68.4731 141.658C68.4837 142.372 68.2117 142.964 67.6571 143.434C67.1131 143.892 66.3717 144.122 65.4331 144.122ZM78.2434 144.122C77.4968 144.122 76.8248 143.951 76.2274 143.61C75.6301 143.268 75.1554 142.788 74.8034 142.17C74.4621 141.54 74.2914 140.804 74.2914 139.962C74.2914 139.119 74.4674 138.388 74.8194 137.77C75.1714 137.14 75.6461 136.655 76.2434 136.314C76.8514 135.972 77.5288 135.802 78.2754 135.802C79.0221 135.802 79.6941 135.972 80.2914 136.314C80.8888 136.655 81.3581 137.14 81.6994 137.77C82.0514 138.388 82.2274 139.119 82.2274 139.962C82.2274 140.804 82.0514 141.54 81.6994 142.17C81.3474 142.788 80.8674 143.268 80.2594 143.61C79.6621 143.951 78.9901 144.122 78.2434 144.122ZM78.2434 142.97C78.7021 142.97 79.1288 142.858 79.5234 142.634C79.9181 142.41 80.2381 142.074 80.4834 141.626C80.7288 141.178 80.8514 140.623 80.8514 139.962C80.8514 139.3 80.7288 138.746 80.4834 138.298C80.2488 137.85 79.9341 137.514 79.5394 137.29C79.1448 137.066 78.7234 136.954 78.2754 136.954C77.8168 136.954 77.3901 137.066 76.9954 137.29C76.6008 137.514 76.2808 137.85 76.0354 138.298C75.7901 138.746 75.6674 139.3 75.6674 139.962C75.6674 140.623 75.7901 141.178 76.0354 141.626C76.2808 142.074 76.5954 142.41 76.9794 142.634C77.3741 142.858 77.7954 142.97 78.2434 142.97ZM84.0962 143.93V135.994H85.3122L85.3922 137.418C85.6482 136.916 86.0162 136.522 86.4962 136.234C86.9762 135.946 87.5202 135.802 88.1282 135.802C89.0669 135.802 89.8135 136.09 90.3682 136.666C90.9335 137.231 91.2162 138.106 91.2162 139.29V143.93H89.8722V139.434C89.8722 137.78 89.1895 136.954 87.8242 136.954C87.1415 136.954 86.5709 137.204 86.1122 137.706C85.6642 138.196 85.4402 138.9 85.4402 139.818V143.93H84.0962ZM96.8628 143.93L100.991 132.73H102.415L106.527 143.93H105.103L104.079 141.05H99.3108L98.2708 143.93H96.8628ZM99.7108 139.962H103.679L101.695 134.426L99.7108 139.962ZM108.112 147.45V135.994H109.328L109.456 137.306C109.712 136.922 110.074 136.575 110.544 136.266C111.024 135.956 111.632 135.802 112.368 135.802C113.157 135.802 113.845 135.983 114.432 136.346C115.018 136.708 115.472 137.204 115.792 137.834C116.122 138.463 116.288 139.178 116.288 139.978C116.288 140.778 116.122 141.492 115.792 142.122C115.472 142.74 115.013 143.231 114.416 143.594C113.829 143.946 113.141 144.122 112.352 144.122C111.701 144.122 111.12 143.988 110.608 143.722C110.106 143.455 109.722 143.082 109.456 142.602V147.45H108.112ZM112.208 142.954C112.741 142.954 113.21 142.831 113.616 142.586C114.021 142.33 114.341 141.978 114.576 141.53C114.81 141.082 114.928 140.559 114.928 139.962C114.928 139.364 114.81 138.842 114.576 138.394C114.341 137.946 114.021 137.599 113.616 137.354C113.21 137.098 112.741 136.97 112.208 136.97C111.674 136.97 111.205 137.098 110.8 137.354C110.394 137.599 110.074 137.946 109.84 138.394C109.605 138.842 109.488 139.364 109.488 139.962C109.488 140.559 109.605 141.082 109.84 141.53C110.074 141.978 110.394 142.33 110.8 142.586C111.205 142.831 111.674 142.954 112.208 142.954ZM118.159 147.45V135.994H119.375L119.503 137.306C119.759 136.922 120.121 136.575 120.591 136.266C121.071 135.956 121.679 135.802 122.415 135.802C123.204 135.802 123.892 135.983 124.479 136.346C125.065 136.708 125.519 137.204 125.839 137.834C126.169 138.463 126.335 139.178 126.335 139.978C126.335 140.778 126.169 141.492 125.839 142.122C125.519 142.74 125.06 143.231 124.463 143.594C123.876 143.946 123.188 144.122 122.399 144.122C121.748 144.122 121.167 143.988 120.655 143.722C120.153 143.455 119.769 143.082 119.503 142.602V147.45H118.159ZM122.255 142.954C122.788 142.954 123.257 142.831 123.663 142.586C124.068 142.33 124.388 141.978 124.623 141.53C124.857 141.082 124.975 140.559 124.975 139.962C124.975 139.364 124.857 138.842 124.623 138.394C124.388 137.946 124.068 137.599 123.663 137.354C123.257 137.098 122.788 136.97 122.255 136.97C121.721 136.97 121.252 137.098 120.847 137.354C120.441 137.599 120.121 137.946 119.887 138.394C119.652 138.842 119.535 139.364 119.535 139.962C119.535 140.559 119.652 141.082 119.887 141.53C120.121 141.978 120.441 142.33 120.847 142.586C121.252 142.831 121.721 142.954 122.255 142.954ZM136.088 144.122C135.267 144.122 134.552 143.972 133.944 143.674C133.336 143.375 132.867 142.959 132.536 142.426C132.205 141.892 132.04 141.274 132.04 140.57H133.448C133.448 141.007 133.549 141.412 133.752 141.786C133.955 142.148 134.248 142.442 134.632 142.666C135.027 142.879 135.512 142.986 136.088 142.986C136.845 142.986 137.432 142.804 137.848 142.442C138.264 142.079 138.472 141.626 138.472 141.082C138.472 140.634 138.376 140.276 138.184 140.01C137.992 139.732 137.731 139.508 137.4 139.338C137.08 139.167 136.707 139.018 136.28 138.89C135.864 138.762 135.427 138.618 134.968 138.458C134.104 138.159 133.464 137.791 133.048 137.354C132.632 136.906 132.424 136.324 132.424 135.61C132.413 135.012 132.552 134.484 132.84 134.026C133.128 133.556 133.533 133.194 134.056 132.938C134.589 132.671 135.219 132.538 135.944 132.538C136.659 132.538 137.277 132.671 137.8 132.938C138.333 133.204 138.744 133.572 139.032 134.042C139.331 134.511 139.485 135.044 139.496 135.642H138.088C138.088 135.332 138.008 135.028 137.848 134.73C137.688 134.42 137.443 134.17 137.112 133.978C136.792 133.786 136.387 133.69 135.896 133.69C135.288 133.679 134.787 133.834 134.392 134.154C134.008 134.474 133.816 134.916 133.816 135.482C133.816 135.962 133.949 136.33 134.216 136.586C134.493 136.842 134.877 137.055 135.368 137.226C135.859 137.386 136.424 137.572 137.064 137.786C137.597 137.978 138.077 138.202 138.504 138.458C138.931 138.714 139.261 139.044 139.496 139.45C139.741 139.855 139.864 140.372 139.864 141.002C139.864 141.535 139.725 142.042 139.448 142.522C139.171 142.991 138.749 143.375 138.184 143.674C137.629 143.972 136.931 144.122 136.088 144.122ZM144.826 143.93C144.101 143.93 143.53 143.754 143.114 143.402C142.698 143.05 142.49 142.415 142.49 141.498V137.13H141.114V135.994H142.49L142.666 134.09H143.834V135.994H146.17V137.13H143.834V141.498C143.834 141.999 143.935 142.34 144.138 142.522C144.341 142.692 144.698 142.778 145.21 142.778H146.042V143.93H144.826ZM151.275 144.122C150.528 144.122 149.856 143.951 149.259 143.61C148.661 143.268 148.187 142.788 147.835 142.17C147.493 141.54 147.323 140.804 147.323 139.962C147.323 139.119 147.499 138.388 147.851 137.77C148.203 137.14 148.677 136.655 149.275 136.314C149.883 135.972 150.56 135.802 151.307 135.802C152.053 135.802 152.725 135.972 153.323 136.314C153.92 136.655 154.389 137.14 154.731 137.77C155.083 138.388 155.259 139.119 155.259 139.962C155.259 140.804 155.083 141.54 154.731 142.17C154.379 142.788 153.899 143.268 153.291 143.61C152.693 143.951 152.021 144.122 151.275 144.122ZM151.275 142.97C151.733 142.97 152.16 142.858 152.555 142.634C152.949 142.41 153.269 142.074 153.515 141.626C153.76 141.178 153.883 140.623 153.883 139.962C153.883 139.3 153.76 138.746 153.515 138.298C153.28 137.85 152.965 137.514 152.571 137.29C152.176 137.066 151.755 136.954 151.307 136.954C150.848 136.954 150.421 137.066 150.027 137.29C149.632 137.514 149.312 137.85 149.067 138.298C148.821 138.746 148.699 139.3 148.699 139.962C148.699 140.623 148.821 141.178 149.067 141.626C149.312 142.074 149.627 142.41 150.011 142.634C150.405 142.858 150.827 142.97 151.275 142.97ZM157.127 143.93V135.994H158.343L158.455 137.514C158.701 136.991 159.074 136.575 159.575 136.266C160.077 135.956 160.695 135.802 161.431 135.802V137.21H161.063C160.594 137.21 160.162 137.295 159.767 137.466C159.373 137.626 159.058 137.903 158.823 138.298C158.589 138.692 158.471 139.236 158.471 139.93V143.93H157.127ZM166.211 144.122C165.454 144.122 164.782 143.951 164.195 143.61C163.608 143.258 163.144 142.772 162.803 142.154C162.472 141.535 162.307 140.804 162.307 139.962C162.307 139.13 162.472 138.404 162.803 137.786C163.134 137.156 163.592 136.671 164.179 136.33C164.776 135.978 165.464 135.802 166.243 135.802C167.011 135.802 167.672 135.978 168.227 136.33C168.792 136.671 169.224 137.124 169.523 137.69C169.822 138.255 169.971 138.863 169.971 139.514C169.971 139.631 169.966 139.748 169.955 139.866C169.955 139.983 169.955 140.116 169.955 140.266H163.635C163.667 140.874 163.806 141.38 164.051 141.786C164.307 142.18 164.622 142.479 164.995 142.682C165.379 142.884 165.784 142.986 166.211 142.986C166.766 142.986 167.23 142.858 167.603 142.602C167.976 142.346 168.248 141.999 168.419 141.562H169.747C169.534 142.298 169.123 142.911 168.515 143.402C167.918 143.882 167.15 144.122 166.211 144.122ZM166.211 136.938C165.571 136.938 165 137.135 164.499 137.53C164.008 137.914 163.726 138.479 163.651 139.226H168.643C168.611 138.511 168.366 137.951 167.907 137.546C167.448 137.14 166.883 136.938 166.211 136.938Z" fill="#2C4A43"/>
</g>
<defs>
<clipPath id="clip0_19845_10957">
<rect width="177" height="166" fill="white"/>
</clipPath>
<clipPath id="clip1_19845_10957">
<rect width="7" height="18" fill="white" transform="matrix(1 0 0 -1 132 28)"/>
</clipPath>
</defs>
</svg>
