<?xml version="1.0" encoding="UTF-8"?>
<!DOCTYPE svg PUBLIC "-//W3C//DTD SVG 1.1//EN" "http://www.w3.org/Graphics/SVG/1.1/DTD/svg11.dtd">
<!-- Creator: CorelDRAW 2021 (64-Bit) -->
<svg xmlns="http://www.w3.org/2000/svg" xml:space="preserve" width="1.45575in" height="0.272874in" version="1.1" style="shape-rendering:geometricPrecision; text-rendering:geometricPrecision; image-rendering:optimizeQuality; fill-rule:evenodd; clip-rule:evenodd"
viewBox="0 0 1453.17 272.39"
 xmlns:xlink="http://www.w3.org/1999/xlink"
 xmlns:xodm="http://www.corel.com/coreldraw/odm/2003">
 <defs>
  <style type="text/css">
   <![CDATA[
    .fil0 {fill:#00B67A;fill-rule:nonzero}
    .fil1 {fill:#DCDCE6;fill-rule:nonzero}
    .fil2 {fill:white;fill-rule:nonzero}
   ]]>
  </style>
 </defs>
 <g id="Layer_x0020_1">
  <metadata id="CorelCorpID_0Corel-Layer"/>
  <polygon class="fil0" points="272.39,0 -0,0 -0,272.39 272.39,272.39 "/>
  <polygon class="fil0" points="567.91,0 295.52,0 295.52,272.39 567.91,272.39 "/>
  <polygon class="fil0" points="862.14,0 589.75,0 589.75,272.39 862.14,272.39 "/>
  <polygon class="fil0" points="1157.66,0 885.27,0 885.27,272.39 1157.66,272.39 "/>
  <polygon class="fil1" points="1453.17,0 1316.97,0 1316.97,272.39 1453.17,272.39 "/>
  <polygon class="fil0" points="1316.99,0 1180.79,0 1180.79,272.39 1316.99,272.39 "/>
  <path class="fil2" d="M136.2 183.43l41.31 -10.47 17.26 53.17 -58.57 -42.7zm95.08 -68.73l-72.73 0 -22.35 -68.44 -22.35 68.44 -72.73 0 58.86 42.43 -22.35 68.45 58.86 -42.42 36.22 -26.02 58.58 -42.43z"/>
  <path class="fil2" d="M431.71 183.43l41.32 -10.47 17.26 53.17 -58.58 -42.7zm95.08 -68.73l-72.73 0 -22.35 -68.44 -22.35 68.44 -72.73 0 58.86 42.43 -22.36 68.45 58.86 -42.42 36.22 -26.02 58.57 -42.43z"/>
  <path class="fil2" d="M725.95 183.43l41.31 -10.47 17.26 53.17 -58.57 -42.7zm95.08 -68.73l-72.73 0 -22.35 -68.44 -22.35 68.44 -72.73 0 58.86 42.43 -22.35 68.45 58.86 -42.42 36.22 -26.02 58.58 -42.43z"/>
  <path class="fil2" d="M1021.46 183.43l41.32 -10.47 17.26 53.17 -58.58 -42.7zm95.09 -68.73l-72.73 0 -22.36 -68.44 -22.35 68.44 -72.73 0 58.86 42.43 -22.35 68.45 58.86 -42.42 36.22 -26.02 58.59 -42.43z"/>
  <path class="fil2" d="M1316.99 183.43l41.31 -10.47 17.26 53.17 -58.57 -42.7zm95.07 -68.73l-72.72 0 -22.35 -68.44 -22.36 68.44 -72.73 0 58.86 42.43 -22.36 68.45 58.86 -42.42 36.22 -26.02 58.57 -42.43z"/>
 </g>
</svg>
