<svg width="41" height="19" viewBox="0 0 41 19" fill="none" xmlns="http://www.w3.org/2000/svg">
<path d="M40.0178 7.71963C34.5466 7.71963 29.0962 8.51858 23.6323 8.77877C17.9676 9.04852 12.2422 8.63764 6.59614 9.24257C5.3392 9.37725 4.087 9.49509 2.83032 9.59562C2.3226 9.63624 0.844775 10.0522 1.34199 9.94174C1.94915 9.80682 2.83259 8.83449 3.28028 8.44649C4.39236 7.48269 5.449 6.46721 6.54768 5.4906C7.92313 4.26798 9.27272 2.95352 10.4796 1.56557C10.5067 1.53448 10.9122 1.03995 10.9573 1.04639C10.9956 1.05186 10.8899 1.40966 10.8881 1.4202C10.8384 1.70692 10.7951 2.00326 10.7635 2.29243C10.6545 3.2864 10.8533 4.30066 10.8604 5.29678C10.8698 6.62574 10.8604 7.95511 10.8604 9.28411C10.8604 12.0225 10.6112 14.7779 10.6112 17.4941C10.6112 18.4486 9.80633 17.1709 9.46203 16.9127C8.45387 16.1565 7.46348 15.3538 6.47153 14.5729C5.71135 13.9744 4.81787 13.533 4.03483 12.953C3.81823 12.7926 3.04402 12.0134 3.13491 11.8316" stroke="#2C4A43" stroke-width="1.49525" stroke-linecap="round"/>
</svg>
