<svg width="42" height="19" viewBox="0 0 42 19" fill="none" xmlns="http://www.w3.org/2000/svg">
<path d="M1.48225 7.71963C6.9534 7.71963 12.4038 8.51858 17.8677 8.77877C23.5324 9.04852 29.2578 8.63764 34.9039 9.24257C36.1608 9.37725 37.413 9.49509 38.6697 9.59562C39.1774 9.63624 40.6552 10.0522 40.158 9.94174C39.5508 9.80682 38.6674 8.83449 38.2197 8.44649C37.1076 7.48269 36.051 6.46721 34.9523 5.4906C33.5769 4.26798 32.2273 2.95352 31.0204 1.56557C30.9933 1.53448 30.5878 1.03995 30.5427 1.04639C30.5044 1.05186 30.6101 1.40966 30.6119 1.4202C30.6616 1.70692 30.7049 2.00326 30.7365 2.29243C30.8455 3.2864 30.6467 4.30066 30.6396 5.29678C30.6302 6.62574 30.6396 7.95511 30.6396 9.28411C30.6396 12.0225 30.8888 14.7779 30.8888 17.4941C30.8888 18.4486 31.6937 17.1709 32.038 16.9127C33.0461 16.1565 34.0365 15.3538 35.0285 14.5729C35.7887 13.9744 36.6821 13.533 37.4652 12.953C37.6818 12.7926 38.456 12.0134 38.3651 11.8316" stroke="#2C4A43" stroke-width="1.49525" stroke-linecap="round"/>
</svg>
