<svg width="81" height="83" viewBox="0 0 81 83" fill="none" xmlns="http://www.w3.org/2000/svg">
<circle cx="40.75" cy="42.5" r="40" fill="white"/>
<circle cx="41.25" cy="58" r="15.5" fill="#6CE4BF"/>
<path d="M56.8101 51.1941C56.8101 49.8023 55.4183 45.621 55.1201 43.9778C54.8452 42.4631 54.9446 41.2234 56.4651 40.9895C80.4885 37.2702 50.3072 52.5216 51.2429 60.9427C52.6347 73.4748 111.126 28.9134 51.2137 25.9076C36.2897 25.1591 33.3891 25.0012 29.7049 19.6795C24.6113 12.3228 29.7283 1.22922 41.5762 1.74384C55.4417 2.34618 57.4476 25.9602 28.699 26.9836C-25.3536 28.9076 24.0908 70.3228 30.354 60.9368C35.9271 52.5801 -4.43547 37.007 25.7458 39.4865C29.5528 39.8023 27.5704 41.4398 26.1786 51.1883" stroke="#2C4A43" stroke-width="2" stroke-linecap="round" stroke-linejoin="round"/>
</svg>
