<svg width="87" height="81" viewBox="0 0 87 81" fill="none" xmlns="http://www.w3.org/2000/svg">
<circle cx="44.001" cy="40.501" r="40" fill="white"/>
<path d="M34.1682 73.5024C26.8309 68.8812 21.6122 61.5158 19.6631 53.027C17.714 44.5382 19.197 35.6228 23.7802 28.236C26.0471 24.5817 29.0131 21.4038 32.5087 18.9083C35.9973 16.4058 39.9378 14.6213 44.1255 13.6544C48.2991 12.6875 52.628 12.5595 56.851 13.2705C61.0811 13.9814 65.1205 15.5313 68.7573 17.8206L34.1682 73.5024Z" fill="#6CDDB8"/>
<path d="M25.4545 36.7782C23.9009 20.5045 32.8695 10.025 47.0145 10.5867C61.1594 11.1484 68.2919 24.7631 63.8217 37.3399C61.6326 43.4896 55.4605 50.2721 52.092 55.6185C47.7842 62.465 46.4213 70.4561 40.7929 71.0035C30.2284 72.0273 30.3131 61.235 29.614 54.3601C28.9784 50.6987 36.4428 56.0877 40.3269 51.1252C42.6502 48.6369 43.0316 43.6247 40.5599 41.1648C38.4484 39.0604 34.9598 39.1812 33.4839 36.4227C31.6054 31.8442 33.7593 25.9006 36.7959 22.6445C43.9355 14.9946 57.8968 20.0637 55.2981 32.4841" stroke="#2D4A43" stroke-width="2.44444" stroke-linecap="round" stroke-linejoin="round"/>
<path d="M9.4043 9.47754L82.7602 68.1096" stroke="#2C4A43" stroke-width="2.44444" stroke-linecap="round"/>
</svg>
